<?xml version="1.0" encoding="UTF-8"?>
<!DOCTYPE svg PUBLIC "-//W3C//DTD SVG 1.1//EN" "http://www.w3.org/Graphics/SVG/1.1/DTD/svg11.dtd">
<svg version="1.1" xmlns="http://www.w3.org/2000/svg" xmlns:xlink="http://www.w3.org/1999/xlink" x="0px" y="0px" width="50" height="50" viewBox="0, 0, 50, 50">
<g>
<path d="M15.282,14.305 L15.53,14.469 L25,23.939 L34.47,14.469 L34.718,14.305 L35.282,14.305 C35.479,14.398 35.582,14.541 35.695,14.718 L35.695,15.282 L35.53,15.53 L26.061,25 L35.53,34.469 L35.695,34.718 L35.695,35.282 C35.475,35.613 35.613,35.475 35.282,35.695 L34.718,35.695 L34.47,35.53 L25,26.06 L15.53,35.53 L15.282,35.695 L14.718,35.695 C14.521,35.602 14.418,35.459 14.305,35.282 L14.305,34.718 L14.47,34.469 L23.939,25 L14.47,15.53 L14.305,15.282 L14.305,14.718 C14.398,14.521 14.541,14.418 14.718,14.305 z" fill="#FFFFFF"/>
</g>
</svg>
